name E:\Dropbox\SEL\BOX\Experiment\240124_SUB1_PJH\c3d\XYZ\UpDown_TrcMot\15_10_trial2_U1_ExtLoadAPP1.mot
datacolumns 37
datarows 7
range 2.245 2.251
endheader

time	    ground_force1_vx	    ground_force1_vy	    ground_force1_vz	    ground_force1_px	    ground_force1_py	    ground_force1_pz	    ground_torque1_x	    ground_torque1_y	    ground_torque1_z	    ground_force2_vx	    ground_force2_vy	    ground_force2_vz	    ground_force2_px	    ground_force2_py	    ground_force2_pz	    ground_torque2_x	    ground_torque2_y	    ground_torque2_z	      hand_force3_vx	      hand_force3_vy	      hand_force3_vz	      hand_force3_px	      hand_force3_py	      hand_force3_pz	      hand_torque3_x	      hand_torque3_y	      hand_torque3_z	      hand_force4_vx	      hand_force4_vy	      hand_force4_vz	      hand_force4_px	      hand_force4_py	      hand_force4_pz	      hand_torque4_x	      hand_torque4_y	      hand_torque4_z	
2.245	         40.09854223	        403.02655401	        -23.55820490	          0.23138124	          0.00000000	          0.29760269	          0.00000000	         -5.14195199	          0.00000000	        -37.51887050	        389.50762259	        -13.62402416	          0.57368001	          0.00000000	          0.26685295	          0.00000000	          4.78104622	          0.00000000	        -11.56566710	        -64.67247174	         15.46709667	          0.21075168	          0.88983035	         -0.01629334	          0.02096546	         -0.85499693	          0.03521122	          9.86653475	        -58.46986245	         14.14912463	          0.58972126	          0.88983035	         -0.00516414	         -0.00823146	          0.32767025	         -0.01379895	
2.246	         40.15273132	        403.10974390	        -23.73826789	          0.23139138	          0.00000000	          0.29775183	          0.00000000	         -5.14719797	          0.00000000	        -37.50144077	        389.50474164	        -13.66028336	          0.57366859	          0.00000000	          0.26693459	          0.00000000	          4.78592489	          0.00000000	        -11.63050180	        -64.72695112	         15.47173940	          0.21073795	          0.89060648	         -0.01663576	          0.02103703	         -0.85848230	          0.03514141	          9.93303803	        -58.43437865	         14.13806502	          0.58973906	          0.89060648	         -0.00551993	         -0.00830683	          0.33084056	         -0.01385709	
2.247	         40.20661791	        403.20158414	        -23.91409332	          0.23140108	          0.00000000	          0.29789731	          0.00000000	         -5.15275250	          0.00000000	        -37.48584953	        389.50087809	        -13.69885657	          0.57365748	          0.00000000	          0.26701778	          0.00000000	          4.79070576	          0.00000000	        -11.69495547	        -64.78352512	         15.47542511	          0.21072516	          0.89138079	         -0.01698005	          0.02110263	         -0.86188801	          0.03506518	         10.00000308	        -58.39989745	         14.12705270	          0.58975846	          0.89138079	         -0.00587831	         -0.00838310	          0.33414429	         -0.01391778	
2.248	         40.26009741	        403.30246276	        -24.08556521	          0.23141036	          0.00000000	          0.29803909	          0.00000000	         -5.15862176	          0.00000000	        -37.47217361	        389.49596462	        -13.73966722	          0.57364671	          0.00000000	          0.26710239	          0.00000000	          4.79538533	          0.00000000	        -11.75904773	        -64.84212538	         15.47816487	          0.21071338	          0.89215328	         -0.01732624	          0.02116220	         -0.86521381	          0.03498255	         10.06745263	        -58.36647961	         14.11606351	          0.58977950	          0.89215328	         -0.00623929	         -0.00846026	          0.33758419	         -0.01398092	
2.249	         40.31306788	        403.41274031	        -24.25257663	          0.23141925	          0.00000000	          0.29817716	          0.00000000	         -5.16481141	          0.00000000	        -37.46048577	        389.48994680	        -13.78263844	          0.57363630	          0.00000000	          0.26718833	          0.00000000	          4.79996052	          0.00000000	        -11.82279849	        -64.90267803	         15.47997278	          0.21070267	          0.89292395	         -0.01767438	          0.02121570	         -0.86845948	          0.03489351	         10.13540915	        -58.33418480	         14.10507220	          0.58980223	          0.89292395	         -0.00660288	         -0.00853828	          0.34116289	         -0.01404641	
2.25	         40.36543030	        403.53274830	        -24.41503011	          0.23142776	          0.00000000	          0.29831150	          0.00000000	         -5.17132652	          0.00000000	        -37.45085457	        389.48278342	        -13.82769331	          0.57362627	          0.00000000	          0.26727546	          0.00000000	          4.80442869	          0.00000000	        -11.88622785	        -64.96510360	         15.48086587	          0.21069310	          0.89369281	         -0.01802451	          0.02126308	         -0.87162489	          0.03479806	         10.20389477	        -58.30307124	         14.09405247	          0.58982668	          0.89369281	         -0.00696910	         -0.00861714	          0.34488290	         -0.01411416	
2.251	         40.41708881	        403.66278771	        -24.57283802	          0.23143590	          0.00000000	          0.29844209	          0.00000000	         -5.17817156	          0.00000000	        -37.44334412	        389.47444655	        -13.87475504	          0.57361664	          0.00000000	          0.26736369	          0.00000000	          4.80878760	          0.00000000	        -11.94935606	        -65.02931694	         15.48086404	          0.21068475	          0.89445984	         -0.01837665	          0.02130430	         -0.87470997	          0.03469619	         10.27293107	        -58.27319541	         14.08297702	          0.58985290	          0.89445984	         -0.00733795	         -0.00869682	          0.34874663	         -0.01418404	
